<?xml version="1.0" encoding="UTF-8" standalone="no"?>
<!DOCTYPE svg PUBLIC "-//W3C//DTD SVG 1.1//EN" "http://www.w3.org/Graphics/SVG/1.1/DTD/svg11.dtd">
<svg xmlns:xlink="http://www.w3.org/1999/xlink" version="1.1" xmlns="http://www.w3.org/2000/svg" viewBox="0 0 100 100" width="100" height="100" preserveAspectRatio="xMinYMin meet">
  <symbol id="_2B" viewBox="0 0 10 10" overflow="visible">
    <rect width="10" height="10" fill="green"/>
  </symbol>
  <symbol id="_2D" viewBox="0 0 20 10" overflow="visible">
    <rect width="20" height="10" fill="purple"/>
  </symbol>
  <symbol id=":unrecognized" viewBox="0 0 200 200" preserveAspectRatio="none" overflow="visible">
    <rect width="200" height="200" fill="yellow"/>
    <path stroke="none" fill="red" d="M 200,100 100,200 0,100 100,0 200,100 z M 135.64709,74.70585 q 0,-13.52935 -10.00006,-22.52943 -9.99999,-8.99999 -24.35289,-8.99999 -17.29415,0 -30.117661,5.29409 L 69.05879,69.52938 q 9.764731,-6.23528 21.52944,-6.23528 8.82356,0 14.58824,4.82351 5.76469,4.82351 5.76469,12.70589 0,8.5883 -9.94117,21.70588 -9.94117,13.11766 -9.94117,26.76473 l 17.88236,0 q 0,-6.3529 6.9412,-14.9412 11.76471,-14.58816 12.82351,-16.35289 6.9412,-11.05887 6.9412,-23.29417 z m -22.00003,92.11771 0,-24.70585 -27.29412,0 0,24.70585 27.29412,0 z"/>
  </symbol>
  <symbol id="_7C" viewBox="0 0 10 20" overflow="visible">
    <rect width="10" height="20" fill="purple"/>
  </symbol>
  <symbol id="X" viewBox="-10 -10 20 20" overflow="visible">
    <circle r="10" fill="red"/>
  </symbol>
  <symbol id="_20" viewBox="-10 -10 20 20" overflow="visible"/>
  <use xlink:href="#_2B" x="0" y="0" width="10" height="10"/>
  <use xlink:href="#_2D" x="10" y="0" width="20" height="10"/>
  <use xlink:href="#_2B" x="30" y="0" width="10" height="10"/>
  <use xlink:href="#_2D" x="40" y="0" width="20" height="10"/>
  <use xlink:href="#_2B" x="60" y="0" width="10" height="10"/>
  <use xlink:href="#_2D" x="70" y="0" width="20" height="10"/>
  <use xlink:href="#:unrecognized" x="90" y="0" width="10" height="10"/>
  <use xlink:href="#_7C" x="0" y="10" width="10" height="20"/>
  <use xlink:href="#X" x="10" y="10" width="20" height="20"/>
  <use xlink:href="#_7C" x="30" y="10" width="10" height="20"/>
  <use xlink:href="#_20" x="40" y="10" width="20" height="20"/>
  <use xlink:href="#_7C" x="60" y="10" width="10" height="20"/>
  <use xlink:href="#:unrecognized" x="70" y="10" width="20" height="20"/>
  <use xlink:href="#_7C" x="90" y="10" width="10" height="20"/>
  <use xlink:href="#_2B" x="0" y="30" width="10" height="10"/>
  <use xlink:href="#_2D" x="10" y="30" width="20" height="10"/>
  <use xlink:href="#_2B" x="30" y="30" width="10" height="10"/>
  <use xlink:href="#_2D" x="40" y="30" width="20" height="10"/>
  <use xlink:href="#_2B" x="60" y="30" width="10" height="10"/>
  <use xlink:href="#_2D" x="70" y="30" width="20" height="10"/>
  <use xlink:href="#_2B" x="90" y="30" width="10" height="10"/>
  <use xlink:href="#_7C" x="0" y="40" width="10" height="20"/>
  <use xlink:href="#_20" x="10" y="40" width="20" height="20"/>
  <use xlink:href="#_7C" x="30" y="40" width="10" height="20"/>
  <use xlink:href="#X" x="40" y="40" width="20" height="20"/>
  <use xlink:href="#_7C" x="60" y="40" width="10" height="20"/>
  <use xlink:href="#_20" x="70" y="40" width="20" height="20"/>
  <use xlink:href="#:unrecognized" x="90" y="40" width="10" height="20"/>
  <use xlink:href="#_2B" x="0" y="60" width="10" height="10"/>
  <use xlink:href="#_2D" x="10" y="60" width="20" height="10"/>
  <use xlink:href="#X" x="30" y="60" width="10" height="10"/>
  <use xlink:href="#_2D" x="40" y="60" width="20" height="10"/>
  <use xlink:href="#_2B" x="60" y="60" width="10" height="10"/>
  <use xlink:href="#_2D" x="70" y="60" width="20" height="10"/>
  <use xlink:href="#_2B" x="90" y="60" width="10" height="10"/>
  <use xlink:href="#_7C" x="0" y="70" width="10" height="20"/>
  <use xlink:href="#_20" x="10" y="70" width="20" height="20"/>
  <use xlink:href="#_7C" x="30" y="70" width="10" height="20"/>
  <use xlink:href="#_20" x="40" y="70" width="20" height="20"/>
  <use xlink:href="#_7C" x="60" y="70" width="10" height="20"/>
  <use xlink:href="#X" x="70" y="70" width="20" height="20"/>
  <use xlink:href="#_7C" x="90" y="70" width="10" height="20"/>
  <use xlink:href="#_2B" x="0" y="90" width="10" height="10"/>
  <use xlink:href="#_2D" x="10" y="90" width="20" height="10"/>
  <use xlink:href="#_2B" x="30" y="90" width="10" height="10"/>
  <use xlink:href="#_2D" x="40" y="90" width="20" height="10"/>
  <use xlink:href="#_2B" x="60" y="90" width="10" height="10"/>
  <use xlink:href="#X" x="70" y="90" width="20" height="10"/>
  <use xlink:href="#_2B" x="90" y="90" width="10" height="10"/>
</svg>