<?xml version="1.0" encoding="UTF-8" standalone="no"?>
<!DOCTYPE svg PUBLIC "-//W3C//DTD SVG 1.1//EN" "http://www.w3.org/Graphics/SVG/1.1/DTD/svg11.dtd">
<svg xmlns:xlink="http://www.w3.org/1999/xlink" version="1.1" viewBox="0 0 320 220" width="320" height="220" xmlns="http://www.w3.org/2000/svg">
  <symbol id="_2E" viewBox="-10 -10 20 20" overflow="visible">
    <circle cx="0" cy="0" r="10" fill="black"/>
    <rect x="0" y="-10" width="10" height="20" fill="black"/>
    <rect x="-10" y="0" width="20" height="10" fill="black"/>
  </symbol>
  <symbol id="_2D" viewBox="10 -10 80 20" overflow="visible">
    <line x1="5" x2="95" y1="0" y2="0" stroke-width="20" stroke="black"/>
  </symbol>
  <symbol id="_2E_v1" viewBox="-10 -10 20 20" overflow="visible">
    <rect x="-10" y="-10" width="20" height="20" fill="black"/>
  </symbol>
  <symbol id="_2E_v2" viewBox="-10 -10 20 20" overflow="visible">
    <circle cx="0" cy="0" r="10" fill="black"/>
    <rect x="-10" y="-10" width="10" height="20" fill="black"/>
    <rect x="-10" y="0" width="20" height="10" fill="black"/>
  </symbol>
  <symbol id="_7C" viewBox="-10 10 20 80" overflow="visible">
    <line y1="5" y2="95" x1="0" x2="0" stroke-width="20" stroke="black"/>
  </symbol>
  <symbol id="_2E_v3" viewBox="-10 -10 20 20" overflow="visible">
    <circle cx="0" cy="0" r="10" fill="black"/>
    <rect x="0" y="-10" width="10" height="20" fill="black"/>
    <rect x="-10" y="-10" width="20" height="10" fill="black"/>
  </symbol>
  <symbol id="_2E_v4" viewBox="-10 -10 20 20" overflow="visible">
    <circle cx="0" cy="0" r="10" fill="black"/>
    <rect x="-10" y="-10" width="10" height="20" fill="black"/>
    <rect x="-10" y="-10" width="20" height="10" fill="black"/>
  </symbol>
  <use xlink:href="#_2E" x="0" y="0" width="20" height="20"/>
  <use xlink:href="#_2E_v1" x="100" y="0" width="20" height="20"/>
  <use xlink:href="#_2E_v1" x="200" y="0" width="20" height="20"/>
  <use xlink:href="#_2E_v2" x="300" y="0" width="20" height="20"/>
  <use xlink:href="#_2E_v3" x="0" y="100" width="20" height="20"/>
  <use xlink:href="#_2E_v1" x="100" y="100" width="20" height="20"/>
  <use xlink:href="#_2E_v1" x="200" y="100" width="20" height="20"/>
  <use xlink:href="#_2E_v4" x="300" y="100" width="20" height="20"/>
  <use xlink:href="#_2E_v3" x="100" y="200" width="20" height="20"/>
  <use xlink:href="#_2E_v4" x="200" y="200" width="20" height="20"/>
  <use xlink:href="#_2D" x="20" y="0" width="80" height="20"/>
  <use xlink:href="#_2D" x="120" y="0" width="80" height="20"/>
  <use xlink:href="#_2D" x="220" y="0" width="80" height="20"/>
  <use xlink:href="#_7C" x="0" y="20" width="20" height="80"/>
  <use xlink:href="#_7C" x="100" y="20" width="20" height="80"/>
  <use xlink:href="#_7C" x="200" y="20" width="20" height="80"/>
  <use xlink:href="#_7C" x="300" y="20" width="20" height="80"/>
  <use xlink:href="#_2D" x="20" y="100" width="80" height="20"/>
  <use xlink:href="#_2D" x="120" y="100" width="80" height="20"/>
  <use xlink:href="#_2D" x="220" y="100" width="80" height="20"/>
  <use xlink:href="#_7C" x="100" y="120" width="20" height="80"/>
  <use xlink:href="#_7C" x="200" y="120" width="20" height="80"/>
  <use xlink:href="#_2D" x="120" y="200" width="80" height="20"/>
</svg>