<?xml version="1.0" encoding="UTF-8" standalone="no"?>
<!DOCTYPE svg PUBLIC "-//W3C//DTD SVG 1.1//EN" "http://www.w3.org/Graphics/SVG/1.1/DTD/svg11.dtd">
<svg xmlns:xlink="http://www.w3.org/1999/xlink" version="1.1" xmlns="http://www.w3.org/2000/svg" viewBox="-0.5 -0.5 141 141" width="141" height="141" preserveAspectRatio="xMinYMin meet">
  <symbol id=":E2:96:88" viewBox="0 0 20 20" overflowBox="-0.5 -0.5 21 21" overflow="visible">
    <rect width="20" height="20" stroke="black" fill="purple"/>
  </symbol>
  <symbol id=":F0:9F:98:8A" viewBox="-10 -10 20 20" overflow="visible">
    <circle r="6" fill="red"/>
    <circle cx="-2" cy="-2" r="1" fill="white"/>
    <circle cx="2" cy="-2" r="1" fill="white"/>
    <path d="M -3 1 Q 0 4, 3 1" fill="none" stroke="white"/>
  </symbol>
  <symbol id=":20" viewBox="-10 -10 20 20" overflow="visible"/>
  <symbol id=":F0:9F:91:8D:F0:9F:8F:BD" viewBox="-10 -10 20 20" overflow="visible">
    <line x1="-5" y1="-5" x2="5" y2="5" stroke="green" stroke-width="2" stroke-linecap="round"/>
    <line x1="-5" y1="5" x2="5" y2="-5" stroke="green" stroke-width="2" stroke-linecap="round"/>
  </symbol>
  <use xlink:href="#:E2:96:88" x="0" y="0" width="20" height="20"/>
  <use xlink:href="#:E2:96:88" x="20" y="0" width="20" height="20"/>
  <use xlink:href="#:E2:96:88" x="40" y="0" width="20" height="20"/>
  <use xlink:href="#:E2:96:88" x="60" y="0" width="20" height="20"/>
  <use xlink:href="#:E2:96:88" x="80" y="0" width="20" height="20"/>
  <use xlink:href="#:E2:96:88" x="100" y="0" width="20" height="20"/>
  <use xlink:href="#:E2:96:88" x="120" y="0" width="20" height="20"/>
  <use xlink:href="#:E2:96:88" x="0" y="20" width="20" height="20"/>
  <use xlink:href="#:F0:9F:98:8A" x="20" y="20" width="20" height="20"/>
  <use xlink:href="#:20" x="40" y="20" width="20" height="20"/>
  <use xlink:href="#:E2:96:88" x="60" y="20" width="20" height="20"/>
  <use xlink:href="#:20" x="80" y="20" width="20" height="20"/>
  <use xlink:href="#:20" x="100" y="20" width="20" height="20"/>
  <use xlink:href="#:F0:9F:91:8D:F0:9F:8F:BD" x="120" y="20" width="20" height="20"/>
  <use xlink:href="#:E2:96:88" x="0" y="40" width="20" height="20"/>
  <use xlink:href="#:E2:96:88" x="20" y="40" width="20" height="20"/>
  <use xlink:href="#:20" x="40" y="40" width="20" height="20"/>
  <use xlink:href="#:E2:96:88" x="60" y="40" width="20" height="20"/>
  <use xlink:href="#:20" x="80" y="40" width="20" height="20"/>
  <use xlink:href="#:E2:96:88" x="100" y="40" width="20" height="20"/>
  <use xlink:href="#:E2:96:88" x="120" y="40" width="20" height="20"/>
  <use xlink:href="#:E2:96:88" x="0" y="60" width="20" height="20"/>
  <use xlink:href="#:20" x="20" y="60" width="20" height="20"/>
  <use xlink:href="#:20" x="40" y="60" width="20" height="20"/>
  <use xlink:href="#:E2:96:88" x="60" y="60" width="20" height="20"/>
  <use xlink:href="#:20" x="80" y="60" width="20" height="20"/>
  <use xlink:href="#:20" x="100" y="60" width="20" height="20"/>
  <use xlink:href="#:E2:96:88" x="120" y="60" width="20" height="20"/>
  <use xlink:href="#:E2:96:88" x="0" y="80" width="20" height="20"/>
  <use xlink:href="#:20" x="20" y="80" width="20" height="20"/>
  <use xlink:href="#:E2:96:88" x="40" y="80" width="20" height="20"/>
  <use xlink:href="#:E2:96:88" x="60" y="80" width="20" height="20"/>
  <use xlink:href="#:E2:96:88" x="80" y="80" width="20" height="20"/>
  <use xlink:href="#:20" x="100" y="80" width="20" height="20"/>
  <use xlink:href="#:E2:96:88" x="120" y="80" width="20" height="20"/>
  <use xlink:href="#:E2:96:88" x="0" y="100" width="20" height="20"/>
  <use xlink:href="#:20" x="20" y="100" width="20" height="20"/>
  <use xlink:href="#:20" x="40" y="100" width="20" height="20"/>
  <use xlink:href="#:20" x="60" y="100" width="20" height="20"/>
  <use xlink:href="#:20" x="80" y="100" width="20" height="20"/>
  <use xlink:href="#:20" x="100" y="100" width="20" height="20"/>
  <use xlink:href="#:E2:96:88" x="120" y="100" width="20" height="20"/>
  <use xlink:href="#:E2:96:88" x="0" y="120" width="20" height="20"/>
  <use xlink:href="#:E2:96:88" x="20" y="120" width="20" height="20"/>
  <use xlink:href="#:E2:96:88" x="40" y="120" width="20" height="20"/>
  <use xlink:href="#:E2:96:88" x="60" y="120" width="20" height="20"/>
  <use xlink:href="#:E2:96:88" x="80" y="120" width="20" height="20"/>
  <use xlink:href="#:E2:96:88" x="100" y="120" width="20" height="20"/>
  <use xlink:href="#:E2:96:88" x="120" y="120" width="20" height="20"/>
</svg>