<?xml version="1.0" encoding="UTF-8" standalone="no"?>
<!DOCTYPE svg PUBLIC "-//W3C//DTD SVG 1.1//EN" "http://www.w3.org/Graphics/SVG/1.1/DTD/svg11.dtd">
<svg xmlns:xlink="http://www.w3.org/1999/xlink" version="1.1" viewBox="-0.5 -0.5 141 141" width="141" height="141" xmlns="http://www.w3.org/2000/svg">
  <symbol id="_E2_96_88" viewBox="0 0 20 20" width="20" height="20" overflow="visible">
    <rect width="20" height="20" stroke="black" fill="purple"/>
  </symbol>
  <symbol id="_F0_9F_98_8A" viewBox="-10 -10 20 20" width="20" height="20" overflow="visible">
    <circle r="6" fill="red"/>
    <circle cx="-2" cy="-2" r="1" fill="white"/>
    <circle cx="2" cy="-2" r="1" fill="white"/>
    <path d="M -3 1 Q 0 4, 3 1" fill="none" stroke="white"/>
  </symbol>
  <symbol id="_F0_9F_91_8D_F0_9F_8F_BD" viewBox="-10 -10 20 20" width="20" height="20" overflow="visible">
    <line x1="-5" y1="-5" x2="5" y2="5" stroke="green" stroke-width="2" stroke-linecap="round"/>
    <line x1="-5" y1="5" x2="5" y2="-5" stroke="green" stroke-width="2" stroke-linecap="round"/>
  </symbol>
  <use xlink:href="#_E2_96_88" x="0" y="0"/>
  <use xlink:href="#_E2_96_88" x="20" y="0"/>
  <use xlink:href="#_E2_96_88" x="40" y="0"/>
  <use xlink:href="#_E2_96_88" x="60" y="0"/>
  <use xlink:href="#_E2_96_88" x="80" y="0"/>
  <use xlink:href="#_E2_96_88" x="100" y="0"/>
  <use xlink:href="#_E2_96_88" x="120" y="0"/>
  <use xlink:href="#_E2_96_88" x="0" y="20"/>
  <use xlink:href="#_F0_9F_98_8A" x="20" y="20"/>
  <use xlink:href="#_E2_96_88" x="60" y="20"/>
  <use xlink:href="#_F0_9F_91_8D_F0_9F_8F_BD" x="120" y="20"/>
  <use xlink:href="#_E2_96_88" x="0" y="40"/>
  <use xlink:href="#_E2_96_88" x="20" y="40"/>
  <use xlink:href="#_E2_96_88" x="60" y="40"/>
  <use xlink:href="#_E2_96_88" x="100" y="40"/>
  <use xlink:href="#_E2_96_88" x="120" y="40"/>
  <use xlink:href="#_E2_96_88" x="0" y="60"/>
  <use xlink:href="#_E2_96_88" x="60" y="60"/>
  <use xlink:href="#_E2_96_88" x="120" y="60"/>
  <use xlink:href="#_E2_96_88" x="0" y="80"/>
  <use xlink:href="#_E2_96_88" x="40" y="80"/>
  <use xlink:href="#_E2_96_88" x="60" y="80"/>
  <use xlink:href="#_E2_96_88" x="80" y="80"/>
  <use xlink:href="#_E2_96_88" x="120" y="80"/>
  <use xlink:href="#_E2_96_88" x="0" y="100"/>
  <use xlink:href="#_E2_96_88" x="120" y="100"/>
  <use xlink:href="#_E2_96_88" x="0" y="120"/>
  <use xlink:href="#_E2_96_88" x="20" y="120"/>
  <use xlink:href="#_E2_96_88" x="40" y="120"/>
  <use xlink:href="#_E2_96_88" x="60" y="120"/>
  <use xlink:href="#_E2_96_88" x="80" y="120"/>
  <use xlink:href="#_E2_96_88" x="100" y="120"/>
  <use xlink:href="#_E2_96_88" x="120" y="120"/>
</svg>