<?xml version="1.0" encoding="UTF-8" standalone="no"?>
<!DOCTYPE svg PUBLIC "-//W3C//DTD SVG 1.1//EN" "http://www.w3.org/Graphics/SVG/1.1/DTD/svg11.dtd">
<svg xmlns:xlink="http://www.w3.org/1999/xlink" version="1.1" viewBox="-2.5 -2.5 205 125" width="205" height="125" xmlns="http://www.w3.org/2000/svg">
  <symbol id="A" viewBox="-10 -10 20 20" overflow="visible">
    <line x1="-10" y1="-10" x2="-10" y2="10" stroke="black" stroke-width="5" stroke-linecap="round"/>
    <line x1="10" y1="-10" x2="10" y2="10" stroke="black" stroke-width="5" stroke-linecap="round"/>
    <line x1="-10" y1="-10" x2="10" y2="-10" stroke="black" stroke-width="5" stroke-linecap="round"/>
  </symbol>
  <symbol id="C" viewBox="-10 -10 20 20" overflow="visible">
    <line x1="-10" y1="-10" x2="-10" y2="10" stroke="black" stroke-width="5" stroke-linecap="round"/>
    <line x1="-10" y1="-10" x2="10" y2="-10" stroke="black" stroke-width="5" stroke-linecap="round"/>
  </symbol>
  <symbol id="C_v1" viewBox="-10 -10 20 20" overflow="visible">
    <line x1="10" y1="-10" x2="10" y2="10" stroke="black" stroke-width="5" stroke-linecap="round"/>
    <line x1="-10" y1="-10" x2="10" y2="-10" stroke="black" stroke-width="5" stroke-linecap="round"/>
  </symbol>
  <symbol id="D" viewBox="-10 -10 20 20" overflow="visible">
    <line x1="-10" y1="-10" x2="-10" y2="10" stroke="black" stroke-width="5" stroke-linecap="round"/>
    <line x1="-10" y1="-10" x2="10" y2="-10" stroke="black" stroke-width="5" stroke-linecap="round"/>
    <line x1="-10" y1="10" x2="10" y2="10" stroke="black" stroke-width="5" stroke-linecap="round"/>
  </symbol>
  <symbol id="D_v1" viewBox="-10 -10 20 20" overflow="visible">
    <line x1="-10" y1="-10" x2="10" y2="-10" stroke="black" stroke-width="5" stroke-linecap="round"/>
  </symbol>
  <symbol id="D_v2" viewBox="-10 -10 20 20" overflow="visible">
    <line x1="-10" y1="-10" x2="10" y2="-10" stroke="black" stroke-width="5" stroke-linecap="round"/>
    <line x1="-10" y1="10" x2="10" y2="10" stroke="black" stroke-width="5" stroke-linecap="round"/>
  </symbol>
  <symbol id="D_v3" viewBox="-10 -10 20 20" overflow="visible">
    <line x1="10" y1="-10" x2="10" y2="10" stroke="black" stroke-width="5" stroke-linecap="round"/>
    <line x1="-10" y1="-10" x2="10" y2="-10" stroke="black" stroke-width="5" stroke-linecap="round"/>
    <line x1="-10" y1="10" x2="10" y2="10" stroke="black" stroke-width="5" stroke-linecap="round"/>
  </symbol>
  <symbol id="A_v1" viewBox="-10 -10 20 20" overflow="visible">
    <line x1="-10" y1="-10" x2="-10" y2="10" stroke="black" stroke-width="5" stroke-linecap="round"/>
    <line x1="10" y1="-10" x2="10" y2="10" stroke="black" stroke-width="5" stroke-linecap="round"/>
  </symbol>
  <symbol id="C_v2" viewBox="-10 -10 20 20" overflow="visible">
    <line x1="-10" y1="-10" x2="-10" y2="10" stroke="black" stroke-width="5" stroke-linecap="round"/>
  </symbol>
  <symbol id="C_v3" viewBox="-10 -10 20 20" overflow="visible">
    <line x1="10" y1="-10" x2="10" y2="10" stroke="black" stroke-width="5" stroke-linecap="round"/>
    <line x1="-10" y1="10" x2="10" y2="10" stroke="black" stroke-width="5" stroke-linecap="round"/>
  </symbol>
  <symbol id="D_v4" viewBox="-10 -10 20 20" overflow="visible">
    <line x1="-10" y1="-10" x2="-10" y2="10" stroke="black" stroke-width="5" stroke-linecap="round"/>
    <line x1="10" y1="-10" x2="10" y2="10" stroke="black" stroke-width="5" stroke-linecap="round"/>
    <line x1="-10" y1="10" x2="10" y2="10" stroke="black" stroke-width="5" stroke-linecap="round"/>
  </symbol>
  <symbol id="H" viewBox="-10 -10 20 20" overflow="visible">
    <line x1="-10" y1="10" x2="10" y2="10" stroke="black" stroke-width="5" stroke-linecap="round"/>
  </symbol>
  <symbol id="F" viewBox="-10 -10 20 20" overflow="visible">
    <line x1="-10" y1="-10" x2="-10" y2="10" stroke="black" stroke-width="5" stroke-linecap="round"/>
    <line x1="-10" y1="10" x2="10" y2="10" stroke="black" stroke-width="5" stroke-linecap="round"/>
  </symbol>
  <use xlink:href="#A" x="0" y="0" width="20" height="20"/>
  <use xlink:href="#C" x="20" y="0" width="20" height="20"/>
  <use xlink:href="#C_v1" x="40" y="0" width="20" height="20"/>
  <use xlink:href="#D" x="60" y="0" width="20" height="20"/>
  <use xlink:href="#D_v1" x="80" y="0" width="20" height="20"/>
  <use xlink:href="#D_v2" x="100" y="0" width="20" height="20"/>
  <use xlink:href="#D_v3" x="120" y="0" width="20" height="20"/>
  <use xlink:href="#D" x="140" y="0" width="20" height="20"/>
  <use xlink:href="#D_v2" x="160" y="0" width="20" height="20"/>
  <use xlink:href="#C_v1" x="180" y="0" width="20" height="20"/>
  <use xlink:href="#A_v1" x="0" y="20" width="20" height="20"/>
  <use xlink:href="#C_v2" x="20" y="20" width="20" height="20"/>
  <use xlink:href="#C_v3" x="40" y="20" width="20" height="20"/>
  <use xlink:href="#A" x="60" y="20" width="20" height="20"/>
  <use xlink:href="#D_v4" x="80" y="20" width="20" height="20"/>
  <use xlink:href="#D" x="100" y="20" width="20" height="20"/>
  <use xlink:href="#D_v2" x="120" y="20" width="20" height="20"/>
  <use xlink:href="#D_v2" x="140" y="20" width="20" height="20"/>
  <use xlink:href="#C_v1" x="160" y="20" width="20" height="20"/>
  <use xlink:href="#A_v1" x="180" y="20" width="20" height="20"/>
  <use xlink:href="#A_v1" x="0" y="40" width="20" height="20"/>
  <use xlink:href="#D_v4" x="20" y="40" width="20" height="20"/>
  <use xlink:href="#D" x="40" y="40" width="20" height="20"/>
  <use xlink:href="#D_v3" x="80" y="40" width="20" height="20"/>
  <use xlink:href="#A" x="100" y="40" width="20" height="20"/>
  <use xlink:href="#D" x="120" y="40" width="20" height="20"/>
  <use xlink:href="#C_v1" x="140" y="40" width="20" height="20"/>
  <use xlink:href="#D_v4" x="160" y="40" width="20" height="20"/>
  <use xlink:href="#D_v4" x="180" y="40" width="20" height="20"/>
  <use xlink:href="#A_v1" x="0" y="60" width="20" height="20"/>
  <use xlink:href="#A" x="20" y="60" width="20" height="20"/>
  <use xlink:href="#A" x="40" y="60" width="20" height="20"/>
  <use xlink:href="#D_v4" x="60" y="60" width="20" height="20"/>
  <use xlink:href="#D" x="80" y="60" width="20" height="20"/>
  <use xlink:href="#H" x="100" y="60" width="20" height="20"/>
  <use xlink:href="#C_v1" x="120" y="60" width="20" height="20"/>
  <use xlink:href="#A_v1" x="140" y="60" width="20" height="20"/>
  <use xlink:href="#D" x="160" y="60" width="20" height="20"/>
  <use xlink:href="#C_v1" x="180" y="60" width="20" height="20"/>
  <use xlink:href="#D_v4" x="0" y="80" width="20" height="20"/>
  <use xlink:href="#A_v1" x="20" y="80" width="20" height="20"/>
  <use xlink:href="#F" x="40" y="80" width="20" height="20"/>
  <use xlink:href="#C_v1" x="60" y="80" width="20" height="20"/>
  <use xlink:href="#D" x="80" y="80" width="20" height="20"/>
  <use xlink:href="#C_v1" x="100" y="80" width="20" height="20"/>
  <use xlink:href="#D_v4" x="120" y="80" width="20" height="20"/>
  <use xlink:href="#F" x="140" y="80" width="20" height="20"/>
  <use xlink:href="#D_v3" x="160" y="80" width="20" height="20"/>
  <use xlink:href="#A_v1" x="180" y="80" width="20" height="20"/>
  <use xlink:href="#D" x="0" y="100" width="20" height="20"/>
  <use xlink:href="#H" x="20" y="100" width="20" height="20"/>
  <use xlink:href="#D_v3" x="40" y="100" width="20" height="20"/>
  <use xlink:href="#F" x="60" y="100" width="20" height="20"/>
  <use xlink:href="#D_v3" x="80" y="100" width="20" height="20"/>
  <use xlink:href="#F" x="100" y="100" width="20" height="20"/>
  <use xlink:href="#D_v2" x="120" y="100" width="20" height="20"/>
  <use xlink:href="#D_v3" x="140" y="100" width="20" height="20"/>
  <use xlink:href="#D" x="160" y="100" width="20" height="20"/>
  <use xlink:href="#C_v3" x="180" y="100" width="20" height="20"/>
</svg>