<?xml version="1.0" encoding="UTF-8" standalone="no"?>
<!DOCTYPE svg PUBLIC "-//W3C//DTD SVG 1.1//EN" "http://www.w3.org/Graphics/SVG/1.1/DTD/svg11.dtd">
<svg xmlns:xlink="http://www.w3.org/1999/xlink" version="1.1" xmlns="http://www.w3.org/2000/svg" viewBox="-2.5 -2.5 205 125" width="205" height="125" preserveAspectRatio="xMinYMin meet">
  <symbol id="A_v0" viewBox="-10 -10 20 20" overflow="visible">
    <line x1="-10" y1="-10" x2="-10" y2="10" stroke="black" stroke-width="5" stroke-linecap="round"/>
    <line x1="10" y1="-10" x2="10" y2="10" stroke="black" stroke-width="5" stroke-linecap="round"/>
    <line x1="-10" y1="-10" x2="10" y2="-10" stroke="black" stroke-width="5" stroke-linecap="round"/>
  </symbol>
  <symbol id="C_v0" viewBox="-10 -10 20 20" overflow="visible">
    <line x1="-10" y1="-10" x2="-10" y2="10" stroke="black" stroke-width="5" stroke-linecap="round"/>
    <line x1="-10" y1="-10" x2="10" y2="-10" stroke="black" stroke-width="5" stroke-linecap="round"/>
  </symbol>
  <symbol id="C_v1" viewBox="-10 -10 20 20" overflow="visible">
    <line x1="10" y1="-10" x2="10" y2="10" stroke="black" stroke-width="5" stroke-linecap="round"/>
    <line x1="-10" y1="-10" x2="10" y2="-10" stroke="black" stroke-width="5" stroke-linecap="round"/>
  </symbol>
  <symbol id="D_v0" viewBox="-10 -10 20 20" overflow="visible">
    <line x1="-10" y1="-10" x2="-10" y2="10" stroke="black" stroke-width="5" stroke-linecap="round"/>
    <line x1="-10" y1="-10" x2="10" y2="-10" stroke="black" stroke-width="5" stroke-linecap="round"/>
    <line x1="-10" y1="10" x2="10" y2="10" stroke="black" stroke-width="5" stroke-linecap="round"/>
  </symbol>
  <symbol id="D_v1" viewBox="-10 -10 20 20" overflow="visible">
    <line x1="-10" y1="-10" x2="10" y2="-10" stroke="black" stroke-width="5" stroke-linecap="round"/>
  </symbol>
  <symbol id="D_v2" viewBox="-10 -10 20 20" overflow="visible">
    <line x1="-10" y1="-10" x2="10" y2="-10" stroke="black" stroke-width="5" stroke-linecap="round"/>
    <line x1="-10" y1="10" x2="10" y2="10" stroke="black" stroke-width="5" stroke-linecap="round"/>
  </symbol>
  <symbol id="D_v3" viewBox="-10 -10 20 20" overflow="visible">
    <line x1="10" y1="-10" x2="10" y2="10" stroke="black" stroke-width="5" stroke-linecap="round"/>
    <line x1="-10" y1="-10" x2="10" y2="-10" stroke="black" stroke-width="5" stroke-linecap="round"/>
    <line x1="-10" y1="10" x2="10" y2="10" stroke="black" stroke-width="5" stroke-linecap="round"/>
  </symbol>
  <symbol id="K_v0" viewBox="-10 -10 20 20" overflow="visible">
    <line x1="-10" y1="-10" x2="-10" y2="10" stroke="black" stroke-width="5" stroke-linecap="round"/>
    <line x1="-10" y1="-10" x2="10" y2="-10" stroke="black" stroke-width="5" stroke-linecap="round"/>
    <line x1="-10" y1="10" x2="10" y2="10" stroke="black" stroke-width="5" stroke-linecap="round"/>
  </symbol>
  <symbol id="K_v1" viewBox="-10 -10 20 20" overflow="visible">
    <line x1="-10" y1="-10" x2="10" y2="-10" stroke="black" stroke-width="5" stroke-linecap="round"/>
    <line x1="-10" y1="10" x2="10" y2="10" stroke="black" stroke-width="5" stroke-linecap="round"/>
  </symbol>
  <symbol id="K_v2" viewBox="-10 -10 20 20" overflow="visible">
    <line x1="10" y1="-10" x2="10" y2="10" stroke="black" stroke-width="5" stroke-linecap="round"/>
    <line x1="-10" y1="-10" x2="10" y2="-10" stroke="black" stroke-width="5" stroke-linecap="round"/>
  </symbol>
  <symbol id="A_v1" viewBox="-10 -10 20 20" overflow="visible">
    <line x1="-10" y1="-10" x2="-10" y2="10" stroke="black" stroke-width="5" stroke-linecap="round"/>
    <line x1="10" y1="-10" x2="10" y2="10" stroke="black" stroke-width="5" stroke-linecap="round"/>
  </symbol>
  <symbol id="C_v2" viewBox="-10 -10 20 20" overflow="visible">
    <line x1="-10" y1="-10" x2="-10" y2="10" stroke="black" stroke-width="5" stroke-linecap="round"/>
  </symbol>
  <symbol id="C_v3" viewBox="-10 -10 20 20" overflow="visible">
    <line x1="10" y1="-10" x2="10" y2="10" stroke="black" stroke-width="5" stroke-linecap="round"/>
    <line x1="-10" y1="10" x2="10" y2="10" stroke="black" stroke-width="5" stroke-linecap="round"/>
  </symbol>
  <symbol id="E_v0" viewBox="-10 -10 20 20" overflow="visible">
    <line x1="-10" y1="-10" x2="-10" y2="10" stroke="black" stroke-width="5" stroke-linecap="round"/>
    <line x1="10" y1="-10" x2="10" y2="10" stroke="black" stroke-width="5" stroke-linecap="round"/>
    <line x1="-10" y1="-10" x2="10" y2="-10" stroke="black" stroke-width="5" stroke-linecap="round"/>
  </symbol>
  <symbol id="D_v4" viewBox="-10 -10 20 20" overflow="visible">
    <line x1="-10" y1="-10" x2="-10" y2="10" stroke="black" stroke-width="5" stroke-linecap="round"/>
    <line x1="10" y1="-10" x2="10" y2="10" stroke="black" stroke-width="5" stroke-linecap="round"/>
    <line x1="-10" y1="10" x2="10" y2="10" stroke="black" stroke-width="5" stroke-linecap="round"/>
  </symbol>
  <symbol id="J_v0" viewBox="-10 -10 20 20" overflow="visible">
    <line x1="-10" y1="-10" x2="-10" y2="10" stroke="black" stroke-width="5" stroke-linecap="round"/>
    <line x1="-10" y1="-10" x2="10" y2="-10" stroke="black" stroke-width="5" stroke-linecap="round"/>
    <line x1="-10" y1="10" x2="10" y2="10" stroke="black" stroke-width="5" stroke-linecap="round"/>
  </symbol>
  <symbol id="J_v1" viewBox="-10 -10 20 20" overflow="visible">
    <line x1="-10" y1="-10" x2="10" y2="-10" stroke="black" stroke-width="5" stroke-linecap="round"/>
    <line x1="-10" y1="10" x2="10" y2="10" stroke="black" stroke-width="5" stroke-linecap="round"/>
  </symbol>
  <symbol id="J_v2" viewBox="-10 -10 20 20" overflow="visible">
    <line x1="10" y1="-10" x2="10" y2="10" stroke="black" stroke-width="5" stroke-linecap="round"/>
    <line x1="-10" y1="-10" x2="10" y2="-10" stroke="black" stroke-width="5" stroke-linecap="round"/>
  </symbol>
  <symbol id="K_v3" viewBox="-10 -10 20 20" overflow="visible">
    <line x1="-10" y1="-10" x2="-10" y2="10" stroke="black" stroke-width="5" stroke-linecap="round"/>
    <line x1="10" y1="-10" x2="10" y2="10" stroke="black" stroke-width="5" stroke-linecap="round"/>
  </symbol>
  <symbol id="C_v4" viewBox="-10 -10 20 20" overflow="visible">
    <line x1="-10" y1="-10" x2="-10" y2="10" stroke="black" stroke-width="5" stroke-linecap="round"/>
    <line x1="10" y1="-10" x2="10" y2="10" stroke="black" stroke-width="5" stroke-linecap="round"/>
    <line x1="-10" y1="10" x2="10" y2="10" stroke="black" stroke-width="5" stroke-linecap="round"/>
  </symbol>
  <symbol id="E_v1" viewBox="-10 -10 20 20" overflow="visible">
    <line x1="-10" y1="-10" x2="-10" y2="10" stroke="black" stroke-width="5" stroke-linecap="round"/>
    <line x1="-10" y1="-10" x2="10" y2="-10" stroke="black" stroke-width="5" stroke-linecap="round"/>
    <line x1="-10" y1="10" x2="10" y2="10" stroke="black" stroke-width="5" stroke-linecap="round"/>
  </symbol>
  <symbol id="E_v2" viewBox="-10 -10 20 20" overflow="visible"/>
  <symbol id="E_v3" viewBox="-10 -10 20 20" overflow="visible">
    <line x1="10" y1="-10" x2="10" y2="10" stroke="black" stroke-width="5" stroke-linecap="round"/>
    <line x1="-10" y1="-10" x2="10" y2="-10" stroke="black" stroke-width="5" stroke-linecap="round"/>
    <line x1="-10" y1="10" x2="10" y2="10" stroke="black" stroke-width="5" stroke-linecap="round"/>
  </symbol>
  <symbol id="H_v0" viewBox="-10 -10 20 20" overflow="visible">
    <line x1="-10" y1="-10" x2="-10" y2="10" stroke="black" stroke-width="5" stroke-linecap="round"/>
    <line x1="10" y1="-10" x2="10" y2="10" stroke="black" stroke-width="5" stroke-linecap="round"/>
    <line x1="-10" y1="-10" x2="10" y2="-10" stroke="black" stroke-width="5" stroke-linecap="round"/>
  </symbol>
  <symbol id="I_v0" viewBox="-10 -10 20 20" overflow="visible">
    <line x1="-10" y1="-10" x2="-10" y2="10" stroke="black" stroke-width="5" stroke-linecap="round"/>
    <line x1="-10" y1="-10" x2="10" y2="-10" stroke="black" stroke-width="5" stroke-linecap="round"/>
    <line x1="-10" y1="10" x2="10" y2="10" stroke="black" stroke-width="5" stroke-linecap="round"/>
  </symbol>
  <symbol id="I_v1" viewBox="-10 -10 20 20" overflow="visible">
    <line x1="10" y1="-10" x2="10" y2="10" stroke="black" stroke-width="5" stroke-linecap="round"/>
    <line x1="-10" y1="-10" x2="10" y2="-10" stroke="black" stroke-width="5" stroke-linecap="round"/>
  </symbol>
  <symbol id="J_v3" viewBox="-10 -10 20 20" overflow="visible">
    <line x1="-10" y1="-10" x2="-10" y2="10" stroke="black" stroke-width="5" stroke-linecap="round"/>
    <line x1="10" y1="-10" x2="10" y2="10" stroke="black" stroke-width="5" stroke-linecap="round"/>
    <line x1="-10" y1="10" x2="10" y2="10" stroke="black" stroke-width="5" stroke-linecap="round"/>
  </symbol>
  <symbol id="K_v4" viewBox="-10 -10 20 20" overflow="visible">
    <line x1="-10" y1="-10" x2="-10" y2="10" stroke="black" stroke-width="5" stroke-linecap="round"/>
    <line x1="10" y1="-10" x2="10" y2="10" stroke="black" stroke-width="5" stroke-linecap="round"/>
    <line x1="-10" y1="10" x2="10" y2="10" stroke="black" stroke-width="5" stroke-linecap="round"/>
  </symbol>
  <symbol id="B_v0" viewBox="-10 -10 20 20" overflow="visible">
    <line x1="-10" y1="-10" x2="-10" y2="10" stroke="black" stroke-width="5" stroke-linecap="round"/>
    <line x1="10" y1="-10" x2="10" y2="10" stroke="black" stroke-width="5" stroke-linecap="round"/>
    <line x1="-10" y1="-10" x2="10" y2="-10" stroke="black" stroke-width="5" stroke-linecap="round"/>
  </symbol>
  <symbol id="F_v0" viewBox="-10 -10 20 20" overflow="visible">
    <line x1="-10" y1="-10" x2="-10" y2="10" stroke="black" stroke-width="5" stroke-linecap="round"/>
    <line x1="10" y1="-10" x2="10" y2="10" stroke="black" stroke-width="5" stroke-linecap="round"/>
    <line x1="-10" y1="-10" x2="10" y2="-10" stroke="black" stroke-width="5" stroke-linecap="round"/>
  </symbol>
  <symbol id="E_v4" viewBox="-10 -10 20 20" overflow="visible">
    <line x1="-10" y1="-10" x2="-10" y2="10" stroke="black" stroke-width="5" stroke-linecap="round"/>
    <line x1="10" y1="-10" x2="10" y2="10" stroke="black" stroke-width="5" stroke-linecap="round"/>
    <line x1="-10" y1="10" x2="10" y2="10" stroke="black" stroke-width="5" stroke-linecap="round"/>
  </symbol>
  <symbol id="H_v1" viewBox="-10 -10 20 20" overflow="visible">
    <line x1="-10" y1="-10" x2="-10" y2="10" stroke="black" stroke-width="5" stroke-linecap="round"/>
    <line x1="-10" y1="-10" x2="10" y2="-10" stroke="black" stroke-width="5" stroke-linecap="round"/>
    <line x1="-10" y1="10" x2="10" y2="10" stroke="black" stroke-width="5" stroke-linecap="round"/>
  </symbol>
  <symbol id="H_v2" viewBox="-10 -10 20 20" overflow="visible">
    <line x1="-10" y1="10" x2="10" y2="10" stroke="black" stroke-width="5" stroke-linecap="round"/>
  </symbol>
  <symbol id="H_v3" viewBox="-10 -10 20 20" overflow="visible">
    <line x1="10" y1="-10" x2="10" y2="10" stroke="black" stroke-width="5" stroke-linecap="round"/>
    <line x1="-10" y1="-10" x2="10" y2="-10" stroke="black" stroke-width="5" stroke-linecap="round"/>
  </symbol>
  <symbol id="I_v2" viewBox="-10 -10 20 20" overflow="visible">
    <line x1="-10" y1="-10" x2="-10" y2="10" stroke="black" stroke-width="5" stroke-linecap="round"/>
    <line x1="10" y1="-10" x2="10" y2="10" stroke="black" stroke-width="5" stroke-linecap="round"/>
  </symbol>
  <symbol id="L_v0" viewBox="-10 -10 20 20" overflow="visible">
    <line x1="-10" y1="-10" x2="-10" y2="10" stroke="black" stroke-width="5" stroke-linecap="round"/>
    <line x1="-10" y1="-10" x2="10" y2="-10" stroke="black" stroke-width="5" stroke-linecap="round"/>
    <line x1="-10" y1="10" x2="10" y2="10" stroke="black" stroke-width="5" stroke-linecap="round"/>
  </symbol>
  <symbol id="L_v1" viewBox="-10 -10 20 20" overflow="visible">
    <line x1="10" y1="-10" x2="10" y2="10" stroke="black" stroke-width="5" stroke-linecap="round"/>
    <line x1="-10" y1="-10" x2="10" y2="-10" stroke="black" stroke-width="5" stroke-linecap="round"/>
  </symbol>
  <symbol id="A_v2" viewBox="-10 -10 20 20" overflow="visible">
    <line x1="-10" y1="-10" x2="-10" y2="10" stroke="black" stroke-width="5" stroke-linecap="round"/>
    <line x1="10" y1="-10" x2="10" y2="10" stroke="black" stroke-width="5" stroke-linecap="round"/>
    <line x1="-10" y1="10" x2="10" y2="10" stroke="black" stroke-width="5" stroke-linecap="round"/>
  </symbol>
  <symbol id="B_v1" viewBox="-10 -10 20 20" overflow="visible">
    <line x1="-10" y1="-10" x2="-10" y2="10" stroke="black" stroke-width="5" stroke-linecap="round"/>
    <line x1="10" y1="-10" x2="10" y2="10" stroke="black" stroke-width="5" stroke-linecap="round"/>
  </symbol>
  <symbol id="F_v1" viewBox="-10 -10 20 20" overflow="visible">
    <line x1="-10" y1="-10" x2="-10" y2="10" stroke="black" stroke-width="5" stroke-linecap="round"/>
    <line x1="-10" y1="10" x2="10" y2="10" stroke="black" stroke-width="5" stroke-linecap="round"/>
  </symbol>
  <symbol id="F_v2" viewBox="-10 -10 20 20" overflow="visible">
    <line x1="10" y1="-10" x2="10" y2="10" stroke="black" stroke-width="5" stroke-linecap="round"/>
    <line x1="-10" y1="-10" x2="10" y2="-10" stroke="black" stroke-width="5" stroke-linecap="round"/>
  </symbol>
  <symbol id="G_v0" viewBox="-10 -10 20 20" overflow="visible">
    <line x1="-10" y1="-10" x2="-10" y2="10" stroke="black" stroke-width="5" stroke-linecap="round"/>
    <line x1="-10" y1="-10" x2="10" y2="-10" stroke="black" stroke-width="5" stroke-linecap="round"/>
    <line x1="-10" y1="10" x2="10" y2="10" stroke="black" stroke-width="5" stroke-linecap="round"/>
  </symbol>
  <symbol id="G_v1" viewBox="-10 -10 20 20" overflow="visible">
    <line x1="10" y1="-10" x2="10" y2="10" stroke="black" stroke-width="5" stroke-linecap="round"/>
    <line x1="-10" y1="-10" x2="10" y2="-10" stroke="black" stroke-width="5" stroke-linecap="round"/>
  </symbol>
  <symbol id="H_v4" viewBox="-10 -10 20 20" overflow="visible">
    <line x1="-10" y1="-10" x2="-10" y2="10" stroke="black" stroke-width="5" stroke-linecap="round"/>
    <line x1="10" y1="-10" x2="10" y2="10" stroke="black" stroke-width="5" stroke-linecap="round"/>
    <line x1="-10" y1="10" x2="10" y2="10" stroke="black" stroke-width="5" stroke-linecap="round"/>
  </symbol>
  <symbol id="I_v3" viewBox="-10 -10 20 20" overflow="visible">
    <line x1="-10" y1="-10" x2="-10" y2="10" stroke="black" stroke-width="5" stroke-linecap="round"/>
    <line x1="-10" y1="10" x2="10" y2="10" stroke="black" stroke-width="5" stroke-linecap="round"/>
  </symbol>
  <symbol id="I_v4" viewBox="-10 -10 20 20" overflow="visible">
    <line x1="10" y1="-10" x2="10" y2="10" stroke="black" stroke-width="5" stroke-linecap="round"/>
    <line x1="-10" y1="-10" x2="10" y2="-10" stroke="black" stroke-width="5" stroke-linecap="round"/>
    <line x1="-10" y1="10" x2="10" y2="10" stroke="black" stroke-width="5" stroke-linecap="round"/>
  </symbol>
  <symbol id="L_v2" viewBox="-10 -10 20 20" overflow="visible">
    <line x1="-10" y1="-10" x2="-10" y2="10" stroke="black" stroke-width="5" stroke-linecap="round"/>
    <line x1="10" y1="-10" x2="10" y2="10" stroke="black" stroke-width="5" stroke-linecap="round"/>
  </symbol>
  <symbol id="B_v2" viewBox="-10 -10 20 20" overflow="visible">
    <line x1="-10" y1="-10" x2="-10" y2="10" stroke="black" stroke-width="5" stroke-linecap="round"/>
    <line x1="-10" y1="-10" x2="10" y2="-10" stroke="black" stroke-width="5" stroke-linecap="round"/>
    <line x1="-10" y1="10" x2="10" y2="10" stroke="black" stroke-width="5" stroke-linecap="round"/>
  </symbol>
  <symbol id="B_v3" viewBox="-10 -10 20 20" overflow="visible">
    <line x1="-10" y1="10" x2="10" y2="10" stroke="black" stroke-width="5" stroke-linecap="round"/>
  </symbol>
  <symbol id="B_v4" viewBox="-10 -10 20 20" overflow="visible">
    <line x1="10" y1="-10" x2="10" y2="10" stroke="black" stroke-width="5" stroke-linecap="round"/>
    <line x1="-10" y1="-10" x2="10" y2="-10" stroke="black" stroke-width="5" stroke-linecap="round"/>
    <line x1="-10" y1="10" x2="10" y2="10" stroke="black" stroke-width="5" stroke-linecap="round"/>
  </symbol>
  <symbol id="F_v3" viewBox="-10 -10 20 20" overflow="visible">
    <line x1="10" y1="-10" x2="10" y2="10" stroke="black" stroke-width="5" stroke-linecap="round"/>
    <line x1="-10" y1="-10" x2="10" y2="-10" stroke="black" stroke-width="5" stroke-linecap="round"/>
    <line x1="-10" y1="10" x2="10" y2="10" stroke="black" stroke-width="5" stroke-linecap="round"/>
  </symbol>
  <symbol id="G_v2" viewBox="-10 -10 20 20" overflow="visible">
    <line x1="-10" y1="-10" x2="-10" y2="10" stroke="black" stroke-width="5" stroke-linecap="round"/>
    <line x1="-10" y1="10" x2="10" y2="10" stroke="black" stroke-width="5" stroke-linecap="round"/>
  </symbol>
  <symbol id="G_v3" viewBox="-10 -10 20 20" overflow="visible">
    <line x1="-10" y1="-10" x2="10" y2="-10" stroke="black" stroke-width="5" stroke-linecap="round"/>
    <line x1="-10" y1="10" x2="10" y2="10" stroke="black" stroke-width="5" stroke-linecap="round"/>
  </symbol>
  <symbol id="G_v4" viewBox="-10 -10 20 20" overflow="visible">
    <line x1="10" y1="-10" x2="10" y2="10" stroke="black" stroke-width="5" stroke-linecap="round"/>
    <line x1="-10" y1="-10" x2="10" y2="-10" stroke="black" stroke-width="5" stroke-linecap="round"/>
    <line x1="-10" y1="10" x2="10" y2="10" stroke="black" stroke-width="5" stroke-linecap="round"/>
  </symbol>
  <symbol id="L_v3" viewBox="-10 -10 20 20" overflow="visible">
    <line x1="10" y1="-10" x2="10" y2="10" stroke="black" stroke-width="5" stroke-linecap="round"/>
    <line x1="-10" y1="10" x2="10" y2="10" stroke="black" stroke-width="5" stroke-linecap="round"/>
  </symbol>
  <use xlink:href="#A_v0" x="0" y="0" width="20" height="20"/>
  <use xlink:href="#C_v0" x="20" y="0" width="20" height="20"/>
  <use xlink:href="#C_v1" x="40" y="0" width="20" height="20"/>
  <use xlink:href="#D_v0" x="60" y="0" width="20" height="20"/>
  <use xlink:href="#D_v1" x="80" y="0" width="20" height="20"/>
  <use xlink:href="#D_v2" x="100" y="0" width="20" height="20"/>
  <use xlink:href="#D_v3" x="120" y="0" width="20" height="20"/>
  <use xlink:href="#K_v0" x="140" y="0" width="20" height="20"/>
  <use xlink:href="#K_v1" x="160" y="0" width="20" height="20"/>
  <use xlink:href="#K_v2" x="180" y="0" width="20" height="20"/>
  <use xlink:href="#A_v1" x="0" y="20" width="20" height="20"/>
  <use xlink:href="#C_v2" x="20" y="20" width="20" height="20"/>
  <use xlink:href="#C_v3" x="40" y="20" width="20" height="20"/>
  <use xlink:href="#E_v0" x="60" y="20" width="20" height="20"/>
  <use xlink:href="#D_v4" x="80" y="20" width="20" height="20"/>
  <use xlink:href="#J_v0" x="100" y="20" width="20" height="20"/>
  <use xlink:href="#J_v1" x="120" y="20" width="20" height="20"/>
  <use xlink:href="#J_v1" x="140" y="20" width="20" height="20"/>
  <use xlink:href="#J_v2" x="160" y="20" width="20" height="20"/>
  <use xlink:href="#K_v3" x="180" y="20" width="20" height="20"/>
  <use xlink:href="#A_v1" x="0" y="40" width="20" height="20"/>
  <use xlink:href="#C_v4" x="20" y="40" width="20" height="20"/>
  <use xlink:href="#E_v1" x="40" y="40" width="20" height="20"/>
  <use xlink:href="#E_v2" x="60" y="40" width="20" height="20"/>
  <use xlink:href="#E_v3" x="80" y="40" width="20" height="20"/>
  <use xlink:href="#H_v0" x="100" y="40" width="20" height="20"/>
  <use xlink:href="#I_v0" x="120" y="40" width="20" height="20"/>
  <use xlink:href="#I_v1" x="140" y="40" width="20" height="20"/>
  <use xlink:href="#J_v3" x="160" y="40" width="20" height="20"/>
  <use xlink:href="#K_v4" x="180" y="40" width="20" height="20"/>
  <use xlink:href="#A_v1" x="0" y="60" width="20" height="20"/>
  <use xlink:href="#B_v0" x="20" y="60" width="20" height="20"/>
  <use xlink:href="#F_v0" x="40" y="60" width="20" height="20"/>
  <use xlink:href="#E_v4" x="60" y="60" width="20" height="20"/>
  <use xlink:href="#H_v1" x="80" y="60" width="20" height="20"/>
  <use xlink:href="#H_v2" x="100" y="60" width="20" height="20"/>
  <use xlink:href="#H_v3" x="120" y="60" width="20" height="20"/>
  <use xlink:href="#I_v2" x="140" y="60" width="20" height="20"/>
  <use xlink:href="#L_v0" x="160" y="60" width="20" height="20"/>
  <use xlink:href="#L_v1" x="180" y="60" width="20" height="20"/>
  <use xlink:href="#A_v2" x="0" y="80" width="20" height="20"/>
  <use xlink:href="#B_v1" x="20" y="80" width="20" height="20"/>
  <use xlink:href="#F_v1" x="40" y="80" width="20" height="20"/>
  <use xlink:href="#F_v2" x="60" y="80" width="20" height="20"/>
  <use xlink:href="#G_v0" x="80" y="80" width="20" height="20"/>
  <use xlink:href="#G_v1" x="100" y="80" width="20" height="20"/>
  <use xlink:href="#H_v4" x="120" y="80" width="20" height="20"/>
  <use xlink:href="#I_v3" x="140" y="80" width="20" height="20"/>
  <use xlink:href="#I_v4" x="160" y="80" width="20" height="20"/>
  <use xlink:href="#L_v2" x="180" y="80" width="20" height="20"/>
  <use xlink:href="#B_v2" x="0" y="100" width="20" height="20"/>
  <use xlink:href="#B_v3" x="20" y="100" width="20" height="20"/>
  <use xlink:href="#B_v4" x="40" y="100" width="20" height="20"/>
  <use xlink:href="#F_v1" x="60" y="100" width="20" height="20"/>
  <use xlink:href="#F_v3" x="80" y="100" width="20" height="20"/>
  <use xlink:href="#G_v2" x="100" y="100" width="20" height="20"/>
  <use xlink:href="#G_v3" x="120" y="100" width="20" height="20"/>
  <use xlink:href="#G_v4" x="140" y="100" width="20" height="20"/>
  <use xlink:href="#L_v0" x="160" y="100" width="20" height="20"/>
  <use xlink:href="#L_v3" x="180" y="100" width="20" height="20"/>
</svg>