<?xml version="1.0" encoding="UTF-8" standalone="no"?>
<!DOCTYPE svg PUBLIC "-//W3C//DTD SVG 1.1//EN" "http://www.w3.org/Graphics/SVG/1.1/DTD/svg11.dtd">
<svg xmlns:xlink="http://www.w3.org/1999/xlink" version="1.1" xmlns="http://www.w3.org/2000/svg" viewBox="-2.5 -2.5 205 125" width="205" height="125" preserveAspectRatio="xMinYMin meet">
  <symbol id="A:v0" viewBox="-10 -10 20 20" overflow="visible">
    <line x1="-10" y1="-10" x2="-10" y2="10" stroke="black" stroke-width="5" stroke-linecap="round"/>
    <line x1="10" y1="-10" x2="10" y2="10" stroke="black" stroke-width="5" stroke-linecap="round"/>
    <line x1="-10" y1="-10" x2="10" y2="-10" stroke="black" stroke-width="5" stroke-linecap="round"/>
  </symbol>
  <symbol id="C:v0" viewBox="-10 -10 20 20" overflow="visible">
    <line x1="-10" y1="-10" x2="-10" y2="10" stroke="black" stroke-width="5" stroke-linecap="round"/>
    <line x1="-10" y1="-10" x2="10" y2="-10" stroke="black" stroke-width="5" stroke-linecap="round"/>
  </symbol>
  <symbol id="C:v1" viewBox="-10 -10 20 20" overflow="visible">
    <line x1="10" y1="-10" x2="10" y2="10" stroke="black" stroke-width="5" stroke-linecap="round"/>
    <line x1="-10" y1="-10" x2="10" y2="-10" stroke="black" stroke-width="5" stroke-linecap="round"/>
  </symbol>
  <symbol id="D:v0" viewBox="-10 -10 20 20" overflow="visible">
    <line x1="-10" y1="-10" x2="-10" y2="10" stroke="black" stroke-width="5" stroke-linecap="round"/>
    <line x1="-10" y1="-10" x2="10" y2="-10" stroke="black" stroke-width="5" stroke-linecap="round"/>
    <line x1="-10" y1="10" x2="10" y2="10" stroke="black" stroke-width="5" stroke-linecap="round"/>
  </symbol>
  <symbol id="D:v1" viewBox="-10 -10 20 20" overflow="visible">
    <line x1="-10" y1="-10" x2="10" y2="-10" stroke="black" stroke-width="5" stroke-linecap="round"/>
  </symbol>
  <symbol id="D:v2" viewBox="-10 -10 20 20" overflow="visible">
    <line x1="-10" y1="-10" x2="10" y2="-10" stroke="black" stroke-width="5" stroke-linecap="round"/>
    <line x1="-10" y1="10" x2="10" y2="10" stroke="black" stroke-width="5" stroke-linecap="round"/>
  </symbol>
  <symbol id="D:v3" viewBox="-10 -10 20 20" overflow="visible">
    <line x1="10" y1="-10" x2="10" y2="10" stroke="black" stroke-width="5" stroke-linecap="round"/>
    <line x1="-10" y1="-10" x2="10" y2="-10" stroke="black" stroke-width="5" stroke-linecap="round"/>
    <line x1="-10" y1="10" x2="10" y2="10" stroke="black" stroke-width="5" stroke-linecap="round"/>
  </symbol>
  <symbol id="K:v0" viewBox="-10 -10 20 20" overflow="visible">
    <line x1="-10" y1="-10" x2="-10" y2="10" stroke="black" stroke-width="5" stroke-linecap="round"/>
    <line x1="-10" y1="-10" x2="10" y2="-10" stroke="black" stroke-width="5" stroke-linecap="round"/>
    <line x1="-10" y1="10" x2="10" y2="10" stroke="black" stroke-width="5" stroke-linecap="round"/>
  </symbol>
  <symbol id="K:v1" viewBox="-10 -10 20 20" overflow="visible">
    <line x1="-10" y1="-10" x2="10" y2="-10" stroke="black" stroke-width="5" stroke-linecap="round"/>
    <line x1="-10" y1="10" x2="10" y2="10" stroke="black" stroke-width="5" stroke-linecap="round"/>
  </symbol>
  <symbol id="K:v2" viewBox="-10 -10 20 20" overflow="visible">
    <line x1="10" y1="-10" x2="10" y2="10" stroke="black" stroke-width="5" stroke-linecap="round"/>
    <line x1="-10" y1="-10" x2="10" y2="-10" stroke="black" stroke-width="5" stroke-linecap="round"/>
  </symbol>
  <symbol id="A:v1" viewBox="-10 -10 20 20" overflow="visible">
    <line x1="-10" y1="-10" x2="-10" y2="10" stroke="black" stroke-width="5" stroke-linecap="round"/>
    <line x1="10" y1="-10" x2="10" y2="10" stroke="black" stroke-width="5" stroke-linecap="round"/>
  </symbol>
  <symbol id="C:v2" viewBox="-10 -10 20 20" overflow="visible">
    <line x1="-10" y1="-10" x2="-10" y2="10" stroke="black" stroke-width="5" stroke-linecap="round"/>
  </symbol>
  <symbol id="C:v3" viewBox="-10 -10 20 20" overflow="visible">
    <line x1="10" y1="-10" x2="10" y2="10" stroke="black" stroke-width="5" stroke-linecap="round"/>
    <line x1="-10" y1="10" x2="10" y2="10" stroke="black" stroke-width="5" stroke-linecap="round"/>
  </symbol>
  <symbol id="E:v0" viewBox="-10 -10 20 20" overflow="visible">
    <line x1="-10" y1="-10" x2="-10" y2="10" stroke="black" stroke-width="5" stroke-linecap="round"/>
    <line x1="10" y1="-10" x2="10" y2="10" stroke="black" stroke-width="5" stroke-linecap="round"/>
    <line x1="-10" y1="-10" x2="10" y2="-10" stroke="black" stroke-width="5" stroke-linecap="round"/>
  </symbol>
  <symbol id="D:v4" viewBox="-10 -10 20 20" overflow="visible">
    <line x1="-10" y1="-10" x2="-10" y2="10" stroke="black" stroke-width="5" stroke-linecap="round"/>
    <line x1="10" y1="-10" x2="10" y2="10" stroke="black" stroke-width="5" stroke-linecap="round"/>
    <line x1="-10" y1="10" x2="10" y2="10" stroke="black" stroke-width="5" stroke-linecap="round"/>
  </symbol>
  <symbol id="J:v0" viewBox="-10 -10 20 20" overflow="visible">
    <line x1="-10" y1="-10" x2="-10" y2="10" stroke="black" stroke-width="5" stroke-linecap="round"/>
    <line x1="-10" y1="-10" x2="10" y2="-10" stroke="black" stroke-width="5" stroke-linecap="round"/>
    <line x1="-10" y1="10" x2="10" y2="10" stroke="black" stroke-width="5" stroke-linecap="round"/>
  </symbol>
  <symbol id="J:v1" viewBox="-10 -10 20 20" overflow="visible">
    <line x1="-10" y1="-10" x2="10" y2="-10" stroke="black" stroke-width="5" stroke-linecap="round"/>
    <line x1="-10" y1="10" x2="10" y2="10" stroke="black" stroke-width="5" stroke-linecap="round"/>
  </symbol>
  <symbol id="J:v2" viewBox="-10 -10 20 20" overflow="visible">
    <line x1="10" y1="-10" x2="10" y2="10" stroke="black" stroke-width="5" stroke-linecap="round"/>
    <line x1="-10" y1="-10" x2="10" y2="-10" stroke="black" stroke-width="5" stroke-linecap="round"/>
  </symbol>
  <symbol id="K:v3" viewBox="-10 -10 20 20" overflow="visible">
    <line x1="-10" y1="-10" x2="-10" y2="10" stroke="black" stroke-width="5" stroke-linecap="round"/>
    <line x1="10" y1="-10" x2="10" y2="10" stroke="black" stroke-width="5" stroke-linecap="round"/>
  </symbol>
  <symbol id="C:v4" viewBox="-10 -10 20 20" overflow="visible">
    <line x1="-10" y1="-10" x2="-10" y2="10" stroke="black" stroke-width="5" stroke-linecap="round"/>
    <line x1="10" y1="-10" x2="10" y2="10" stroke="black" stroke-width="5" stroke-linecap="round"/>
    <line x1="-10" y1="10" x2="10" y2="10" stroke="black" stroke-width="5" stroke-linecap="round"/>
  </symbol>
  <symbol id="E:v1" viewBox="-10 -10 20 20" overflow="visible">
    <line x1="-10" y1="-10" x2="-10" y2="10" stroke="black" stroke-width="5" stroke-linecap="round"/>
    <line x1="-10" y1="-10" x2="10" y2="-10" stroke="black" stroke-width="5" stroke-linecap="round"/>
    <line x1="-10" y1="10" x2="10" y2="10" stroke="black" stroke-width="5" stroke-linecap="round"/>
  </symbol>
  <symbol id="E:v2" viewBox="-10 -10 20 20" overflow="visible"/>
  <symbol id="E:v3" viewBox="-10 -10 20 20" overflow="visible">
    <line x1="10" y1="-10" x2="10" y2="10" stroke="black" stroke-width="5" stroke-linecap="round"/>
    <line x1="-10" y1="-10" x2="10" y2="-10" stroke="black" stroke-width="5" stroke-linecap="round"/>
    <line x1="-10" y1="10" x2="10" y2="10" stroke="black" stroke-width="5" stroke-linecap="round"/>
  </symbol>
  <symbol id="H:v0" viewBox="-10 -10 20 20" overflow="visible">
    <line x1="-10" y1="-10" x2="-10" y2="10" stroke="black" stroke-width="5" stroke-linecap="round"/>
    <line x1="10" y1="-10" x2="10" y2="10" stroke="black" stroke-width="5" stroke-linecap="round"/>
    <line x1="-10" y1="-10" x2="10" y2="-10" stroke="black" stroke-width="5" stroke-linecap="round"/>
  </symbol>
  <symbol id="I:v0" viewBox="-10 -10 20 20" overflow="visible">
    <line x1="-10" y1="-10" x2="-10" y2="10" stroke="black" stroke-width="5" stroke-linecap="round"/>
    <line x1="-10" y1="-10" x2="10" y2="-10" stroke="black" stroke-width="5" stroke-linecap="round"/>
    <line x1="-10" y1="10" x2="10" y2="10" stroke="black" stroke-width="5" stroke-linecap="round"/>
  </symbol>
  <symbol id="I:v1" viewBox="-10 -10 20 20" overflow="visible">
    <line x1="10" y1="-10" x2="10" y2="10" stroke="black" stroke-width="5" stroke-linecap="round"/>
    <line x1="-10" y1="-10" x2="10" y2="-10" stroke="black" stroke-width="5" stroke-linecap="round"/>
  </symbol>
  <symbol id="J:v3" viewBox="-10 -10 20 20" overflow="visible">
    <line x1="-10" y1="-10" x2="-10" y2="10" stroke="black" stroke-width="5" stroke-linecap="round"/>
    <line x1="10" y1="-10" x2="10" y2="10" stroke="black" stroke-width="5" stroke-linecap="round"/>
    <line x1="-10" y1="10" x2="10" y2="10" stroke="black" stroke-width="5" stroke-linecap="round"/>
  </symbol>
  <symbol id="K:v4" viewBox="-10 -10 20 20" overflow="visible">
    <line x1="-10" y1="-10" x2="-10" y2="10" stroke="black" stroke-width="5" stroke-linecap="round"/>
    <line x1="10" y1="-10" x2="10" y2="10" stroke="black" stroke-width="5" stroke-linecap="round"/>
    <line x1="-10" y1="10" x2="10" y2="10" stroke="black" stroke-width="5" stroke-linecap="round"/>
  </symbol>
  <symbol id="B:v0" viewBox="-10 -10 20 20" overflow="visible">
    <line x1="-10" y1="-10" x2="-10" y2="10" stroke="black" stroke-width="5" stroke-linecap="round"/>
    <line x1="10" y1="-10" x2="10" y2="10" stroke="black" stroke-width="5" stroke-linecap="round"/>
    <line x1="-10" y1="-10" x2="10" y2="-10" stroke="black" stroke-width="5" stroke-linecap="round"/>
  </symbol>
  <symbol id="F:v0" viewBox="-10 -10 20 20" overflow="visible">
    <line x1="-10" y1="-10" x2="-10" y2="10" stroke="black" stroke-width="5" stroke-linecap="round"/>
    <line x1="10" y1="-10" x2="10" y2="10" stroke="black" stroke-width="5" stroke-linecap="round"/>
    <line x1="-10" y1="-10" x2="10" y2="-10" stroke="black" stroke-width="5" stroke-linecap="round"/>
  </symbol>
  <symbol id="E:v4" viewBox="-10 -10 20 20" overflow="visible">
    <line x1="-10" y1="-10" x2="-10" y2="10" stroke="black" stroke-width="5" stroke-linecap="round"/>
    <line x1="10" y1="-10" x2="10" y2="10" stroke="black" stroke-width="5" stroke-linecap="round"/>
    <line x1="-10" y1="10" x2="10" y2="10" stroke="black" stroke-width="5" stroke-linecap="round"/>
  </symbol>
  <symbol id="H:v1" viewBox="-10 -10 20 20" overflow="visible">
    <line x1="-10" y1="-10" x2="-10" y2="10" stroke="black" stroke-width="5" stroke-linecap="round"/>
    <line x1="-10" y1="-10" x2="10" y2="-10" stroke="black" stroke-width="5" stroke-linecap="round"/>
    <line x1="-10" y1="10" x2="10" y2="10" stroke="black" stroke-width="5" stroke-linecap="round"/>
  </symbol>
  <symbol id="H:v2" viewBox="-10 -10 20 20" overflow="visible">
    <line x1="-10" y1="10" x2="10" y2="10" stroke="black" stroke-width="5" stroke-linecap="round"/>
  </symbol>
  <symbol id="H:v3" viewBox="-10 -10 20 20" overflow="visible">
    <line x1="10" y1="-10" x2="10" y2="10" stroke="black" stroke-width="5" stroke-linecap="round"/>
    <line x1="-10" y1="-10" x2="10" y2="-10" stroke="black" stroke-width="5" stroke-linecap="round"/>
  </symbol>
  <symbol id="I:v2" viewBox="-10 -10 20 20" overflow="visible">
    <line x1="-10" y1="-10" x2="-10" y2="10" stroke="black" stroke-width="5" stroke-linecap="round"/>
    <line x1="10" y1="-10" x2="10" y2="10" stroke="black" stroke-width="5" stroke-linecap="round"/>
  </symbol>
  <symbol id="L:v0" viewBox="-10 -10 20 20" overflow="visible">
    <line x1="-10" y1="-10" x2="-10" y2="10" stroke="black" stroke-width="5" stroke-linecap="round"/>
    <line x1="-10" y1="-10" x2="10" y2="-10" stroke="black" stroke-width="5" stroke-linecap="round"/>
    <line x1="-10" y1="10" x2="10" y2="10" stroke="black" stroke-width="5" stroke-linecap="round"/>
  </symbol>
  <symbol id="L:v1" viewBox="-10 -10 20 20" overflow="visible">
    <line x1="10" y1="-10" x2="10" y2="10" stroke="black" stroke-width="5" stroke-linecap="round"/>
    <line x1="-10" y1="-10" x2="10" y2="-10" stroke="black" stroke-width="5" stroke-linecap="round"/>
  </symbol>
  <symbol id="A:v2" viewBox="-10 -10 20 20" overflow="visible">
    <line x1="-10" y1="-10" x2="-10" y2="10" stroke="black" stroke-width="5" stroke-linecap="round"/>
    <line x1="10" y1="-10" x2="10" y2="10" stroke="black" stroke-width="5" stroke-linecap="round"/>
    <line x1="-10" y1="10" x2="10" y2="10" stroke="black" stroke-width="5" stroke-linecap="round"/>
  </symbol>
  <symbol id="B:v1" viewBox="-10 -10 20 20" overflow="visible">
    <line x1="-10" y1="-10" x2="-10" y2="10" stroke="black" stroke-width="5" stroke-linecap="round"/>
    <line x1="10" y1="-10" x2="10" y2="10" stroke="black" stroke-width="5" stroke-linecap="round"/>
  </symbol>
  <symbol id="F:v1" viewBox="-10 -10 20 20" overflow="visible">
    <line x1="-10" y1="-10" x2="-10" y2="10" stroke="black" stroke-width="5" stroke-linecap="round"/>
    <line x1="-10" y1="10" x2="10" y2="10" stroke="black" stroke-width="5" stroke-linecap="round"/>
  </symbol>
  <symbol id="F:v2" viewBox="-10 -10 20 20" overflow="visible">
    <line x1="10" y1="-10" x2="10" y2="10" stroke="black" stroke-width="5" stroke-linecap="round"/>
    <line x1="-10" y1="-10" x2="10" y2="-10" stroke="black" stroke-width="5" stroke-linecap="round"/>
  </symbol>
  <symbol id="G:v0" viewBox="-10 -10 20 20" overflow="visible">
    <line x1="-10" y1="-10" x2="-10" y2="10" stroke="black" stroke-width="5" stroke-linecap="round"/>
    <line x1="-10" y1="-10" x2="10" y2="-10" stroke="black" stroke-width="5" stroke-linecap="round"/>
    <line x1="-10" y1="10" x2="10" y2="10" stroke="black" stroke-width="5" stroke-linecap="round"/>
  </symbol>
  <symbol id="G:v1" viewBox="-10 -10 20 20" overflow="visible">
    <line x1="10" y1="-10" x2="10" y2="10" stroke="black" stroke-width="5" stroke-linecap="round"/>
    <line x1="-10" y1="-10" x2="10" y2="-10" stroke="black" stroke-width="5" stroke-linecap="round"/>
  </symbol>
  <symbol id="H:v4" viewBox="-10 -10 20 20" overflow="visible">
    <line x1="-10" y1="-10" x2="-10" y2="10" stroke="black" stroke-width="5" stroke-linecap="round"/>
    <line x1="10" y1="-10" x2="10" y2="10" stroke="black" stroke-width="5" stroke-linecap="round"/>
    <line x1="-10" y1="10" x2="10" y2="10" stroke="black" stroke-width="5" stroke-linecap="round"/>
  </symbol>
  <symbol id="I:v3" viewBox="-10 -10 20 20" overflow="visible">
    <line x1="-10" y1="-10" x2="-10" y2="10" stroke="black" stroke-width="5" stroke-linecap="round"/>
    <line x1="-10" y1="10" x2="10" y2="10" stroke="black" stroke-width="5" stroke-linecap="round"/>
  </symbol>
  <symbol id="I:v4" viewBox="-10 -10 20 20" overflow="visible">
    <line x1="10" y1="-10" x2="10" y2="10" stroke="black" stroke-width="5" stroke-linecap="round"/>
    <line x1="-10" y1="-10" x2="10" y2="-10" stroke="black" stroke-width="5" stroke-linecap="round"/>
    <line x1="-10" y1="10" x2="10" y2="10" stroke="black" stroke-width="5" stroke-linecap="round"/>
  </symbol>
  <symbol id="L:v2" viewBox="-10 -10 20 20" overflow="visible">
    <line x1="-10" y1="-10" x2="-10" y2="10" stroke="black" stroke-width="5" stroke-linecap="round"/>
    <line x1="10" y1="-10" x2="10" y2="10" stroke="black" stroke-width="5" stroke-linecap="round"/>
  </symbol>
  <symbol id="B:v2" viewBox="-10 -10 20 20" overflow="visible">
    <line x1="-10" y1="-10" x2="-10" y2="10" stroke="black" stroke-width="5" stroke-linecap="round"/>
    <line x1="-10" y1="-10" x2="10" y2="-10" stroke="black" stroke-width="5" stroke-linecap="round"/>
    <line x1="-10" y1="10" x2="10" y2="10" stroke="black" stroke-width="5" stroke-linecap="round"/>
  </symbol>
  <symbol id="B:v3" viewBox="-10 -10 20 20" overflow="visible">
    <line x1="-10" y1="10" x2="10" y2="10" stroke="black" stroke-width="5" stroke-linecap="round"/>
  </symbol>
  <symbol id="B:v4" viewBox="-10 -10 20 20" overflow="visible">
    <line x1="10" y1="-10" x2="10" y2="10" stroke="black" stroke-width="5" stroke-linecap="round"/>
    <line x1="-10" y1="-10" x2="10" y2="-10" stroke="black" stroke-width="5" stroke-linecap="round"/>
    <line x1="-10" y1="10" x2="10" y2="10" stroke="black" stroke-width="5" stroke-linecap="round"/>
  </symbol>
  <symbol id="F:v3" viewBox="-10 -10 20 20" overflow="visible">
    <line x1="10" y1="-10" x2="10" y2="10" stroke="black" stroke-width="5" stroke-linecap="round"/>
    <line x1="-10" y1="-10" x2="10" y2="-10" stroke="black" stroke-width="5" stroke-linecap="round"/>
    <line x1="-10" y1="10" x2="10" y2="10" stroke="black" stroke-width="5" stroke-linecap="round"/>
  </symbol>
  <symbol id="G:v2" viewBox="-10 -10 20 20" overflow="visible">
    <line x1="-10" y1="-10" x2="-10" y2="10" stroke="black" stroke-width="5" stroke-linecap="round"/>
    <line x1="-10" y1="10" x2="10" y2="10" stroke="black" stroke-width="5" stroke-linecap="round"/>
  </symbol>
  <symbol id="G:v3" viewBox="-10 -10 20 20" overflow="visible">
    <line x1="-10" y1="-10" x2="10" y2="-10" stroke="black" stroke-width="5" stroke-linecap="round"/>
    <line x1="-10" y1="10" x2="10" y2="10" stroke="black" stroke-width="5" stroke-linecap="round"/>
  </symbol>
  <symbol id="G:v4" viewBox="-10 -10 20 20" overflow="visible">
    <line x1="10" y1="-10" x2="10" y2="10" stroke="black" stroke-width="5" stroke-linecap="round"/>
    <line x1="-10" y1="-10" x2="10" y2="-10" stroke="black" stroke-width="5" stroke-linecap="round"/>
    <line x1="-10" y1="10" x2="10" y2="10" stroke="black" stroke-width="5" stroke-linecap="round"/>
  </symbol>
  <symbol id="L:v3" viewBox="-10 -10 20 20" overflow="visible">
    <line x1="10" y1="-10" x2="10" y2="10" stroke="black" stroke-width="5" stroke-linecap="round"/>
    <line x1="-10" y1="10" x2="10" y2="10" stroke="black" stroke-width="5" stroke-linecap="round"/>
  </symbol>
  <use xlink:href="#A:v0" x="0" y="0" width="20" height="20"/>
  <use xlink:href="#C:v0" x="20" y="0" width="20" height="20"/>
  <use xlink:href="#C:v1" x="40" y="0" width="20" height="20"/>
  <use xlink:href="#D:v0" x="60" y="0" width="20" height="20"/>
  <use xlink:href="#D:v1" x="80" y="0" width="20" height="20"/>
  <use xlink:href="#D:v2" x="100" y="0" width="20" height="20"/>
  <use xlink:href="#D:v3" x="120" y="0" width="20" height="20"/>
  <use xlink:href="#K:v0" x="140" y="0" width="20" height="20"/>
  <use xlink:href="#K:v1" x="160" y="0" width="20" height="20"/>
  <use xlink:href="#K:v2" x="180" y="0" width="20" height="20"/>
  <use xlink:href="#A:v1" x="0" y="20" width="20" height="20"/>
  <use xlink:href="#C:v2" x="20" y="20" width="20" height="20"/>
  <use xlink:href="#C:v3" x="40" y="20" width="20" height="20"/>
  <use xlink:href="#E:v0" x="60" y="20" width="20" height="20"/>
  <use xlink:href="#D:v4" x="80" y="20" width="20" height="20"/>
  <use xlink:href="#J:v0" x="100" y="20" width="20" height="20"/>
  <use xlink:href="#J:v1" x="120" y="20" width="20" height="20"/>
  <use xlink:href="#J:v1" x="140" y="20" width="20" height="20"/>
  <use xlink:href="#J:v2" x="160" y="20" width="20" height="20"/>
  <use xlink:href="#K:v3" x="180" y="20" width="20" height="20"/>
  <use xlink:href="#A:v1" x="0" y="40" width="20" height="20"/>
  <use xlink:href="#C:v4" x="20" y="40" width="20" height="20"/>
  <use xlink:href="#E:v1" x="40" y="40" width="20" height="20"/>
  <use xlink:href="#E:v2" x="60" y="40" width="20" height="20"/>
  <use xlink:href="#E:v3" x="80" y="40" width="20" height="20"/>
  <use xlink:href="#H:v0" x="100" y="40" width="20" height="20"/>
  <use xlink:href="#I:v0" x="120" y="40" width="20" height="20"/>
  <use xlink:href="#I:v1" x="140" y="40" width="20" height="20"/>
  <use xlink:href="#J:v3" x="160" y="40" width="20" height="20"/>
  <use xlink:href="#K:v4" x="180" y="40" width="20" height="20"/>
  <use xlink:href="#A:v1" x="0" y="60" width="20" height="20"/>
  <use xlink:href="#B:v0" x="20" y="60" width="20" height="20"/>
  <use xlink:href="#F:v0" x="40" y="60" width="20" height="20"/>
  <use xlink:href="#E:v4" x="60" y="60" width="20" height="20"/>
  <use xlink:href="#H:v1" x="80" y="60" width="20" height="20"/>
  <use xlink:href="#H:v2" x="100" y="60" width="20" height="20"/>
  <use xlink:href="#H:v3" x="120" y="60" width="20" height="20"/>
  <use xlink:href="#I:v2" x="140" y="60" width="20" height="20"/>
  <use xlink:href="#L:v0" x="160" y="60" width="20" height="20"/>
  <use xlink:href="#L:v1" x="180" y="60" width="20" height="20"/>
  <use xlink:href="#A:v2" x="0" y="80" width="20" height="20"/>
  <use xlink:href="#B:v1" x="20" y="80" width="20" height="20"/>
  <use xlink:href="#F:v1" x="40" y="80" width="20" height="20"/>
  <use xlink:href="#F:v2" x="60" y="80" width="20" height="20"/>
  <use xlink:href="#G:v0" x="80" y="80" width="20" height="20"/>
  <use xlink:href="#G:v1" x="100" y="80" width="20" height="20"/>
  <use xlink:href="#H:v4" x="120" y="80" width="20" height="20"/>
  <use xlink:href="#I:v3" x="140" y="80" width="20" height="20"/>
  <use xlink:href="#I:v4" x="160" y="80" width="20" height="20"/>
  <use xlink:href="#L:v2" x="180" y="80" width="20" height="20"/>
  <use xlink:href="#B:v2" x="0" y="100" width="20" height="20"/>
  <use xlink:href="#B:v3" x="20" y="100" width="20" height="20"/>
  <use xlink:href="#B:v4" x="40" y="100" width="20" height="20"/>
  <use xlink:href="#F:v1" x="60" y="100" width="20" height="20"/>
  <use xlink:href="#F:v3" x="80" y="100" width="20" height="20"/>
  <use xlink:href="#G:v2" x="100" y="100" width="20" height="20"/>
  <use xlink:href="#G:v3" x="120" y="100" width="20" height="20"/>
  <use xlink:href="#G:v4" x="140" y="100" width="20" height="20"/>
  <use xlink:href="#L:v0" x="160" y="100" width="20" height="20"/>
  <use xlink:href="#L:v3" x="180" y="100" width="20" height="20"/>
</svg>