<?xml version="1.0" encoding="UTF-8" standalone="no"?>
<!DOCTYPE svg PUBLIC "-//W3C//DTD SVG 1.1//EN" "http://www.w3.org/Graphics/SVG/1.1/DTD/svg11.dtd">
<svg xmlns:xlink="http://www.w3.org/1999/xlink" version="1.1" viewBox="-1 -1 172 172" width="172" height="172" xmlns="http://www.w3.org/2000/svg">
  <symbol id="O" viewBox="-5 -5 10 10" overflow="visible">
    <circle r="5" stroke="black" stroke-width="2" fill="white"/>
  </symbol>
  <symbol id="_20" viewBox="-5 -5 10 10" overflow="visible"/>
  <symbol id="O_v1" viewBox="-5 -5 10 10" overflow="visible">
    <circle r="5" stroke="black" stroke-width="2" fill="black"/>
  </symbol>
  <symbol id="_7C" viewBox="-5 -5 10 10" overflow="visible">
    <line y1="-5" y2="5" stroke="purple" stroke-width="4"/>
  </symbol>
  <symbol id="_2D" viewBox="-5 -5 10 10" overflow="visible">
    <line x1="-5" x2="5" stroke="purple" stroke-width="4"/>
  </symbol>
  <use xlink:href="#_20" x="10" y="0" width="10" height="10"/>
  <use xlink:href="#_20" x="30" y="0" width="10" height="10"/>
  <use xlink:href="#_20" x="0" y="10" width="10" height="10"/>
  <use xlink:href="#_20" x="10" y="10" width="10" height="10"/>
  <use xlink:href="#_20" x="20" y="10" width="10" height="10"/>
  <use xlink:href="#_20" x="30" y="10" width="10" height="10"/>
  <use xlink:href="#_20" x="40" y="10" width="10" height="10"/>
  <use xlink:href="#_20" x="10" y="20" width="10" height="10"/>
  <use xlink:href="#_20" x="30" y="20" width="10" height="10"/>
  <use xlink:href="#_20" x="0" y="30" width="10" height="10"/>
  <use xlink:href="#_20" x="10" y="30" width="10" height="10"/>
  <use xlink:href="#_20" x="20" y="30" width="10" height="10"/>
  <use xlink:href="#_20" x="30" y="30" width="10" height="10"/>
  <use xlink:href="#_20" x="40" y="30" width="10" height="10"/>
  <use xlink:href="#_20" x="10" y="40" width="10" height="10"/>
  <use xlink:href="#_20" x="30" y="40" width="10" height="10"/>
  <use xlink:href="#_7C" x="0" y="50" width="10" height="10"/>
  <use xlink:href="#_20" x="10" y="50" width="10" height="10"/>
  <use xlink:href="#_20" x="20" y="50" width="10" height="10"/>
  <use xlink:href="#_2D" x="10" y="60" width="10" height="10"/>
  <use xlink:href="#_20" x="0" y="70" width="10" height="10"/>
  <use xlink:href="#_20" x="10" y="70" width="10" height="10"/>
  <use xlink:href="#_7C" x="20" y="70" width="10" height="10"/>
  <use xlink:href="#_2D" x="10" y="80" width="10" height="10"/>
  <use xlink:href="#_7C" x="0" y="90" width="10" height="10"/>
  <use xlink:href="#_20" x="10" y="90" width="10" height="10"/>
  <use xlink:href="#_20" x="20" y="90" width="10" height="10"/>
  <use xlink:href="#_2D" x="10" y="100" width="10" height="10"/>
  <use xlink:href="#_20" x="30" y="100" width="10" height="10"/>
  <use xlink:href="#_20" x="40" y="100" width="10" height="10"/>
  <use xlink:href="#_20" x="50" y="100" width="10" height="10"/>
  <use xlink:href="#_20" x="60" y="100" width="10" height="10"/>
  <use xlink:href="#_20" x="70" y="100" width="10" height="10"/>
  <use xlink:href="#_20" x="80" y="100" width="10" height="10"/>
  <use xlink:href="#_20" x="90" y="100" width="10" height="10"/>
  <use xlink:href="#_20" x="100" y="100" width="10" height="10"/>
  <use xlink:href="#_20" x="110" y="100" width="10" height="10"/>
  <use xlink:href="#_20" x="130" y="100" width="10" height="10"/>
  <use xlink:href="#_20" x="150" y="100" width="10" height="10"/>
  <use xlink:href="#_20" x="0" y="110" width="10" height="10"/>
  <use xlink:href="#_20" x="10" y="110" width="10" height="10"/>
  <use xlink:href="#_7C" x="20" y="110" width="10" height="10"/>
  <use xlink:href="#_2D" x="10" y="120" width="10" height="10"/>
  <use xlink:href="#_20" x="30" y="120" width="10" height="10"/>
  <use xlink:href="#_20" x="40" y="120" width="10" height="10"/>
  <use xlink:href="#_20" x="50" y="120" width="10" height="10"/>
  <use xlink:href="#_20" x="60" y="120" width="10" height="10"/>
  <use xlink:href="#_20" x="70" y="120" width="10" height="10"/>
  <use xlink:href="#_20" x="80" y="120" width="10" height="10"/>
  <use xlink:href="#_20" x="90" y="120" width="10" height="10"/>
  <use xlink:href="#_20" x="100" y="120" width="10" height="10"/>
  <use xlink:href="#_20" x="110" y="120" width="10" height="10"/>
  <use xlink:href="#_20" x="130" y="120" width="10" height="10"/>
  <use xlink:href="#_20" x="150" y="120" width="10" height="10"/>
  <use xlink:href="#_7C" x="0" y="130" width="10" height="10"/>
  <use xlink:href="#_20" x="10" y="130" width="10" height="10"/>
  <use xlink:href="#_20" x="20" y="130" width="10" height="10"/>
  <use xlink:href="#_20" x="10" y="140" width="10" height="10"/>
  <use xlink:href="#_2D" x="30" y="140" width="10" height="10"/>
  <use xlink:href="#_20" x="50" y="140" width="10" height="10"/>
  <use xlink:href="#_2D" x="70" y="140" width="10" height="10"/>
  <use xlink:href="#_20" x="90" y="140" width="10" height="10"/>
  <use xlink:href="#_2D" x="110" y="140" width="10" height="10"/>
  <use xlink:href="#_20" x="130" y="140" width="10" height="10"/>
  <use xlink:href="#_20" x="150" y="140" width="10" height="10"/>
  <use xlink:href="#_7C" x="0" y="150" width="10" height="10"/>
  <use xlink:href="#_20" x="10" y="150" width="10" height="10"/>
  <use xlink:href="#_7C" x="20" y="150" width="10" height="10"/>
  <use xlink:href="#_20" x="30" y="150" width="10" height="10"/>
  <use xlink:href="#_7C" x="40" y="150" width="10" height="10"/>
  <use xlink:href="#_20" x="50" y="150" width="10" height="10"/>
  <use xlink:href="#_7C" x="60" y="150" width="10" height="10"/>
  <use xlink:href="#_20" x="70" y="150" width="10" height="10"/>
  <use xlink:href="#_7C" x="80" y="150" width="10" height="10"/>
  <use xlink:href="#_20" x="90" y="150" width="10" height="10"/>
  <use xlink:href="#_7C" x="100" y="150" width="10" height="10"/>
  <use xlink:href="#_2D" x="10" y="160" width="10" height="10"/>
  <use xlink:href="#_20" x="30" y="160" width="10" height="10"/>
  <use xlink:href="#_2D" x="50" y="160" width="10" height="10"/>
  <use xlink:href="#_20" x="70" y="160" width="10" height="10"/>
  <use xlink:href="#_2D" x="90" y="160" width="10" height="10"/>
  <use xlink:href="#O" x="0" y="0" width="10" height="10"/>
  <use xlink:href="#O_v1" x="20" y="0" width="10" height="10"/>
  <use xlink:href="#O" x="40" y="0" width="10" height="10"/>
  <use xlink:href="#O_v1" x="0" y="20" width="10" height="10"/>
  <use xlink:href="#O" x="20" y="20" width="10" height="10"/>
  <use xlink:href="#O_v1" x="40" y="20" width="10" height="10"/>
  <use xlink:href="#O" x="0" y="40" width="10" height="10"/>
  <use xlink:href="#O_v1" x="20" y="40" width="10" height="10"/>
  <use xlink:href="#O" x="40" y="40" width="10" height="10"/>
  <use xlink:href="#O_v1" x="0" y="60" width="10" height="10"/>
  <use xlink:href="#O" x="20" y="60" width="10" height="10"/>
  <use xlink:href="#O" x="0" y="80" width="10" height="10"/>
  <use xlink:href="#O_v1" x="20" y="80" width="10" height="10"/>
  <use xlink:href="#O_v1" x="0" y="100" width="10" height="10"/>
  <use xlink:href="#O" x="20" y="100" width="10" height="10"/>
  <use xlink:href="#O_v1" x="120" y="100" width="10" height="10"/>
  <use xlink:href="#O" x="140" y="100" width="10" height="10"/>
  <use xlink:href="#O_v1" x="160" y="100" width="10" height="10"/>
  <use xlink:href="#O" x="0" y="120" width="10" height="10"/>
  <use xlink:href="#O_v1" x="20" y="120" width="10" height="10"/>
  <use xlink:href="#O" x="120" y="120" width="10" height="10"/>
  <use xlink:href="#O_v1" x="140" y="120" width="10" height="10"/>
  <use xlink:href="#O" x="160" y="120" width="10" height="10"/>
  <use xlink:href="#O_v1" x="0" y="140" width="10" height="10"/>
  <use xlink:href="#O" x="20" y="140" width="10" height="10"/>
  <use xlink:href="#O_v1" x="40" y="140" width="10" height="10"/>
  <use xlink:href="#O" x="60" y="140" width="10" height="10"/>
  <use xlink:href="#O_v1" x="80" y="140" width="10" height="10"/>
  <use xlink:href="#O" x="100" y="140" width="10" height="10"/>
  <use xlink:href="#O_v1" x="120" y="140" width="10" height="10"/>
  <use xlink:href="#O" x="140" y="140" width="10" height="10"/>
  <use xlink:href="#O_v1" x="160" y="140" width="10" height="10"/>
  <use xlink:href="#O" x="0" y="160" width="10" height="10"/>
  <use xlink:href="#O_v1" x="20" y="160" width="10" height="10"/>
  <use xlink:href="#O" x="40" y="160" width="10" height="10"/>
  <use xlink:href="#O_v1" x="60" y="160" width="10" height="10"/>
  <use xlink:href="#O" x="80" y="160" width="10" height="10"/>
  <use xlink:href="#O_v1" x="100" y="160" width="10" height="10"/>
</svg>